<?xml version="1.0" standalone="no"?>
<!DOCTYPE svg PUBLIC "-//W3C//DTD SVG 20010904//EN"
 "http://www.w3.org/TR/2001/REC-SVG-20010904/DTD/svg10.dtd">
<svg version="1.0" xmlns="http://www.w3.org/2000/svg"
 width="469.000000pt" height="469.000000pt" viewBox="0 0 469.000000 469.000000"
 preserveAspectRatio="xMidYMid meet">
<metadata>
Created by potrace 1.11, written by Peter Selinger 2001-2013
</metadata>
<g transform="translate(0.000000,469.000000) scale(0.100000,-0.100000)"
fill="#000000" stroke="none">
<path d="M0 2345 l0 -2345 2345 0 2345 0 0 566 c0 374 -3 563 -10 559 -6 -3
-10 -1 -10 4 0 6 5 11 10 11 7 0 10 93 10 275 -1 266 -2 275 -20 265 -26 -14
-33 -13 -26 6 3 8 2 12 -4 9 -6 -3 -10 -1 -10 6 0 19 -17 -2 -22 -26 -4 -16
-7 -13 -16 15 -10 28 -11 30 -8 8 4 -34 -1 -35 -25 -6 -21 23 -24 38 -9 38 6
0 10 -5 10 -12 0 -6 2 -9 5 -6 10 9 -7 38 -22 38 -8 0 -11 5 -8 10 4 7 14 5
26 -4 11 -7 30 -12 42 -9 18 4 19 3 7 -6 -19 -14 0 -14 34 -1 21 8 26 6 26 -6
0 -8 4 -12 10 -9 6 4 10 530 10 1485 l0 1480 -50 0 c-32 0 -50 -4 -50 -12 0
-9 -3 -9 -12 0 -9 9 -406 12 -1724 12 -1512 0 -1713 -2 -1718 -15 -3 -8 -12
-15 -19 -15 -20 0 -73 -28 -87 -45 -17 -21 -27 -19 -34 8 l-5 22 -22 -22 c-19
-18 -22 -34 -24 -112 -1 -51 2 -94 6 -97 5 -3 9 0 9 5 0 6 5 11 10 11 25 0 6
-29 -27 -44 -21 -9 -46 -21 -55 -26 -12 -7 -18 -5 -21 8 -3 12 -6 10 -11 -10
l-8 -27 -49 51 c-40 41 -53 65 -70 122 -21 76 -22 78 -44 116 -11 19 -22 25
-50 25 -19 0 -35 -3 -35 -6 0 -3 -11 -19 -25 -35 -20 -24 -24 -36 -19 -64 4
-19 11 -40 16 -47 7 -8 5 -17 -5 -28 -9 -8 -18 -15 -20 -15 -6 0 -19 129 -19
191 l0 49 -264 0 -264 0 0 -2345z m3035 2255 c3 -5 1 -10 -4 -10 -6 0 -11 5
-11 10 0 6 2 10 4 10 3 0 8 -4 11 -10z m945 -34 c0 -3 -4 -8 -10 -11 -5 -3
-10 -1 -10 4 0 6 5 11 10 11 6 0 10 -2 10 -4z m-1410 -56 c0 -5 -2 -10 -4 -10
-3 0 -8 5 -11 10 -3 6 -1 10 4 10 6 0 11 -4 11 -10z m-2340 -36 c0 -8 -4 -12
-10 -9 -5 3 -10 10 -10 16 0 5 5 9 10 9 6 0 10 -7 10 -16z m147 -110 c-9 -9
-28 6 -21 18 4 6 10 6 17 -1 6 -6 8 -13 4 -17z m513 -43 c0 -5 -10 -11 -22
-14 -22 -6 -22 -6 -4 8 23 17 26 18 26 6z m-345 -58 c-4 -33 -24 -73 -37 -73
-10 0 -10 -2 -1 -8 18 -11 -2 -37 -30 -37 l-23 -1 18 39 c11 21 25 40 33 44 8
3 15 13 15 22 0 18 8 31 20 31 4 0 6 -8 5 -17z m3295 -43 c0 -5 -4 -10 -10
-10 -5 0 -10 5 -10 10 0 6 5 10 10 10 6 0 10 -4 10 -10z m-535 -40 c3 -5 1
-10 -4 -10 -6 0 -11 5 -11 10 0 6 2 10 4 10 3 0 8 -4 11 -10z m685 -90 c0 -5
-4 -10 -10 -10 -5 0 -10 5 -10 10 0 6 5 10 10 10 6 0 10 -4 10 -10z m-3035
-20 c3 -5 1 -10 -4 -10 -6 0 -11 5 -11 10 0 6 2 10 4 10 3 0 8 -4 11 -10z
m3255 0 c0 -5 -4 -10 -10 -10 -5 0 -10 5 -10 10 0 6 5 10 10 10 6 0 10 -4 10
-10z m-2610 -20 c0 -5 -2 -10 -4 -10 -3 0 -8 5 -11 10 -3 6 -1 10 4 10 6 0 11
-4 11 -10z m1985 -60 c3 -5 1 -10 -4 -10 -6 0 -11 5 -11 10 0 6 2 10 4 10 3 0
8 -4 11 -10z m913 -43 c2 -12 -3 -17 -17 -17 -12 0 -21 6 -21 13 0 31 32 34
38 4z m-2633 -7 c3 0 3 5 0 10 -7 11 43 -8 60 -22 5 -4 22 -8 37 -8 15 0 28
-4 28 -10 0 -5 6 -10 14 -10 7 0 24 -15 36 -33 13 -19 31 -38 40 -43 66 -36
71 -38 79 -25 5 7 25 13 45 13 20 0 36 4 36 9 0 12 94 9 101 -3 4 -6 17 -3 33
7 23 16 26 16 26 1 0 -12 10 -16 45 -16 25 0 45 -4 45 -10 0 -5 9 -10 19 -10
11 0 21 -5 23 -12 3 -7 12 -9 22 -5 12 5 15 13 11 27 -4 13 -1 22 8 26 9 3 20
18 27 33 9 22 21 30 63 39 29 7 63 13 77 14 37 2 110 -13 110 -23 0 -5 11 -14
24 -20 20 -9 23 -15 14 -29 -9 -14 -18 -15 -60 -7 -34 7 -61 6 -87 -2 -21 -6
-48 -11 -60 -11 -12 0 -44 -21 -74 -51 -43 -41 -55 -49 -69 -40 -14 8 -21 5
-37 -16 -12 -14 -21 -23 -21 -19 0 4 -6 4 -12 0 -38 -23 -97 7 -99 50 0 16 -2
17 -7 6 -7 -16 -43 -21 -53 -7 -10 14 -79 -33 -79 -55 0 -14 -5 -18 -15 -14
-18 6 -19 -7 -4 -36 8 -15 8 -22 -1 -28 -9 -5 -9 -9 -1 -14 6 -4 11 -12 11
-19 0 -8 -3 -8 -12 1 -19 19 -30 14 -18 -7 15 -28 13 -32 -13 -22 -13 5 -30 5
-37 1 -9 -5 -20 -4 -27 2 -10 8 -13 6 -13 -5 0 -10 -11 -17 -32 -19 -18 -2
-32 -7 -31 -13 1 -5 -9 -16 -23 -23 -19 -10 -23 -18 -18 -34 6 -20 4 -21 -40
-15 -25 4 -46 5 -46 2 0 -2 12 -16 27 -30 20 -17 39 -25 65 -25 21 0 38 -5 38
-11 0 -7 10 -9 25 -7 13 3 22 2 20 -2 -9 -15 115 -2 140 14 32 21 38 20 30 -5
-4 -13 0 -28 12 -41 17 -20 17 -21 1 -15 -10 4 -18 2 -18 -3 0 -11 35 -32 47
-28 8 3 13 -5 13 -21 0 -9 -39 -23 -73 -26 -10 -1 -29 -13 -44 -26 -25 -23
-25 -24 -19 -2 6 18 4 21 -16 16 -13 -3 -28 -10 -35 -15 -18 -14 -127 -18
-135 -5 -5 8 -14 7 -32 -3 -14 -7 -29 -11 -32 -8 -3 4 4 9 15 13 31 10 25 26
-6 19 -41 -10 -43 -12 -43 -50 0 -30 4 -35 30 -41 17 -3 33 -10 36 -14 7 -13
58 -11 71 2 16 16 67 -49 52 -67 -6 -8 -17 -14 -24 -14 -6 0 -17 -12 -23 -26
-13 -26 -7 -26 27 0 14 11 61 16 61 6 0 -3 -3 -15 -6 -27 -5 -20 -8 -20 -21
-8 -16 17 -39 20 -47 6 -3 -4 -29 -6 -58 -3 -36 3 -57 11 -70 26 -13 16 -20
18 -26 8 -5 -7 -16 -10 -26 -6 -10 4 -21 3 -25 -3 -3 -5 -35 -27 -70 -49 -45
-27 -66 -35 -69 -26 -2 8 -8 10 -15 4 -7 -6 -28 -12 -47 -16 -22 -4 -28 -3
-16 2 13 6 16 11 8 16 -6 4 -19 -5 -29 -21 -22 -35 -45 -54 -59 -49 -13 5 -34
-35 -34 -65 0 -11 11 -47 25 -80 15 -37 19 -56 11 -50 -8 7 -17 23 -20 37 -4
15 -14 37 -22 50 -13 20 -19 21 -35 11 -10 -6 -19 -15 -19 -20 0 -4 4 -6 10
-2 8 5 17 -19 36 -100 l7 -30 -26 24 -25 23 -8 -47 c-3 -26 -4 -78 0 -116 5
-53 3 -68 -6 -67 -9 2 -14 -17 -16 -67 -1 -38 -4 -80 -7 -93 -7 -29 -25 -19
-25 13 0 77 -59 -23 -85 -144 -8 -36 -26 -109 -40 -161 -20 -74 -26 -118 -26
-199 0 -59 5 -109 11 -115 14 -14 13 -68 -3 -91 -7 -11 -21 -42 -31 -70 -10
-27 -25 -69 -33 -92 -9 -24 -22 -43 -30 -43 -11 0 -13 5 -8 18 4 9 12 42 17
72 5 30 17 71 25 90 20 43 35 180 18 156 -21 -28 -5 89 41 309 45 213 65 286
135 499 21 66 39 127 39 135 0 9 7 29 16 46 14 28 14 31 -6 47 -12 10 -28 18
-36 18 -17 0 -18 32 -2 48 9 9 9 12 -4 12 -24 0 -67 71 -74 124 -7 47 -7 48
15 37 20 -11 21 -11 9 8 -10 16 -15 18 -27 8 -11 -9 -15 -9 -18 0 -8 24 -30
-11 -37 -60 -5 -32 -17 -59 -38 -82 -29 -34 -55 -38 -44 -8 4 8 1 11 -5 8 -6
-4 -16 0 -22 8 -35 45 -185 95 -302 101 -40 2 -50 6 -49 19 1 9 -2 17 -7 17
-14 0 -11 94 3 108 8 8 8 12 1 12 -6 0 -13 7 -17 15 -4 12 5 15 52 13 l57 -1
-50 -7 c-71 -10 -36 -11 285 -11 351 0 318 -1 300 12 -11 8 4 9 56 6 53 -3 78
-10 101 -27 26 -18 45 -22 112 -24 44 0 81 -4 81 -8 0 -5 9 -8 20 -8 23 0 25
9 6 35 -7 10 -11 26 -9 36 3 10 -2 26 -12 35 -13 14 -14 19 -3 25 10 7 10 9
-2 9 -11 0 -10 3 4 11 15 9 16 13 5 20 -12 8 -12 11 1 19 13 9 13 12 -2 24
-20 14 -25 31 -7 20 8 -5 8 -1 0 14 -15 28 -14 32 6 25 15 -6 16 -5 3 9 -11
11 -19 13 -28 6 -7 -6 -15 -9 -18 -6 -2 3 12 17 31 32 30 23 34 30 24 42 -10
12 -9 16 8 20 14 4 20 14 21 36 0 17 7 35 14 39 9 6 9 9 1 9 -6 0 -20 15 -32
33 -15 24 -18 42 -14 75 3 23 2 42 -3 42 -12 0 -8 98 5 133 6 16 9 33 6 38 -4
5 5 14 19 21 27 12 33 23 16 33 -19 12 -11 26 9 15 11 -5 22 -10 26 -10z
m2185 -11 c0 -5 -7 -9 -15 -9 -15 0 -20 12 -9 23 8 8 24 -1 24 -14z m-180 -19
c0 -5 -5 -10 -11 -10 -5 0 -7 5 -4 10 3 6 8 10 11 10 2 0 4 -4 4 -10z m-2465
-10 c3 -5 3 -15 -1 -21 -6 -11 -23 6 -24 24 0 10 18 9 25 -3z m680 -40 c3 -5
1 -10 -4 -10 -6 0 -11 5 -11 10 0 6 2 10 4 10 3 0 8 -4 11 -10z m-885 -20 c0
-5 -4 -10 -9 -10 -6 0 -13 5 -16 10 -3 6 1 10 9 10 9 0 16 -4 16 -10z m445
-20 c3 -5 1 -10 -4 -10 -6 0 -11 5 -11 10 0 6 2 10 4 10 3 0 8 -4 11 -10z
m875 -150 c0 -5 -4 -10 -10 -10 -5 0 -10 5 -10 10 0 6 5 10 10 10 6 0 10 -4
10 -10z m138 -29 c-20 -24 -40 -39 -71 -50 -17 -6 -25 -7 -22 -1 8 14 5 13
-39 -10 -37 -18 -56 -19 -56 0 0 4 18 11 40 15 22 4 40 11 40 15 0 5 9 12 20
15 11 3 20 14 20 23 0 14 7 17 40 14 36 -4 39 -6 28 -21z m252 19 c0 -5 -5
-10 -11 -10 -5 0 -7 5 -4 10 3 6 8 10 11 10 2 0 4 -4 4 -10z m-33 -51 c-9 -6
-17 -20 -17 -32 0 -18 -2 -19 -10 -7 -9 13 -12 13 -23 -1 -11 -14 -56 -13 -83
3 -5 3 -31 2 -57 -2 -26 -4 -50 -3 -53 2 -3 4 8 8 25 8 16 0 31 4 33 9 2 5 27
6 55 4 29 -3 50 -9 47 -14 -10 -16 8 -9 25 9 9 10 24 21 34 25 9 3 17 17 18
29 l0 23 12 -23 c9 -20 8 -26 -6 -33z m-377 11 c0 -5 -4 -10 -10 -10 -5 0 -10
5 -10 10 0 6 5 10 10 10 6 0 10 -4 10 -10z m200 0 c18 -12 2 -12 -25 0 -13 6
-15 9 -5 9 8 0 22 -4 30 -9z m-2076 -41 c-3 -5 -10 -7 -15 -3 -5 3 -7 10 -3
15 3 5 10 7 15 3 5 -3 7 -10 3 -15z m-34 7 c0 -11 -19 -15 -25 -6 -3 5 1 10 9
10 9 0 16 -2 16 -4z m96 -47 c1 -5 2 -16 3 -24 1 -11 9 -14 37 -9 27 4 35 2
32 -8 -3 -7 -10 -14 -16 -14 -7 -1 -17 -2 -23 -3 -6 0 -8 -10 -4 -21 4 -11 2
-20 -4 -20 -9 0 -41 88 -41 113 0 12 14 -1 16 -14z m3276 6 c3 3 21 -2 41 -10
21 -8 37 -12 37 -9 0 4 6 2 13 -4 6 -5 31 -9 54 -7 36 3 42 0 47 -20 7 -29 62
-88 75 -81 5 4 12 2 16 -4 4 -6 -5 -10 -20 -10 -38 0 -22 -17 17 -18 18 0 34
-6 36 -11 2 -6 9 -11 16 -11 7 0 21 -9 31 -20 9 -10 22 -18 27 -17 6 1 13 -4
15 -10 3 -7 0 -13 -6 -13 -6 0 -11 -10 -11 -22 0 -21 1 -21 20 -3 26 23 52 6
30 -19 -7 -9 -10 -23 -6 -31 3 -9 0 -15 -9 -15 -8 0 -15 -4 -15 -10 0 -5 -4
-10 -9 -10 -5 0 -7 9 -4 20 6 24 -12 27 -21 4 -12 -32 26 -48 52 -22 18 18 14
-3 -5 -24 -9 -10 -27 -18 -41 -18 -17 0 -23 -4 -18 -15 9 -25 -29 -56 -56 -46
-29 10 -41 64 -35 149 l5 63 -37 -3 -36 -3 -2 -55 c-4 -87 -13 -140 -24 -140
-6 0 -8 9 -4 19 3 11 1 22 -5 26 -6 4 -10 -6 -10 -24 0 -17 -8 -38 -17 -46
-10 -8 -34 -28 -53 -44 -33 -28 -35 -32 -38 -105 -4 -81 -10 -88 -50 -60 -14
10 -22 26 -22 44 0 34 -31 140 -41 140 -7 0 -19 -61 -19 -100 0 -14 -5 -41
-10 -61 -8 -30 -16 -38 -41 -43 -17 -3 -43 -15 -58 -25 -22 -16 -31 -17 -40
-8 -15 15 -31 -7 -31 -45 0 -34 -31 -39 -53 -8 -8 11 -16 17 -20 14 -3 -3 -30
1 -60 10 -30 9 -65 16 -77 16 -13 0 -29 8 -36 18 -13 16 -13 16 -14 -1 0 -15
-7 -18 -42 -15 l-43 3 -3 55 c-2 60 -19 131 -39 170 -7 14 -13 32 -13 40 -1 8
-7 26 -15 40 l-14 25 -1 -27 c0 -16 -16 -60 -36 -99 -26 -50 -35 -79 -32 -101
l5 -32 -23 27 c-13 15 -30 27 -38 27 -7 0 -55 16 -105 35 -51 20 -113 37 -139
39 -25 2 -48 9 -50 15 -2 7 -9 8 -22 1 -10 -5 -25 -7 -34 -4 -8 3 -25 -1 -38
-10 -14 -10 -17 -16 -8 -16 9 0 11 -3 4 -10 -14 -14 -74 7 -74 26 0 8 -4 14
-10 14 -5 0 -10 4 -10 10 0 5 16 9 35 7 19 -1 35 -5 35 -9 0 -5 5 -8 10 -8 6
0 3 12 -7 26 -17 26 -17 27 6 19 15 -4 21 -3 17 3 -3 5 1 12 9 16 8 3 12 12 9
21 -5 12 0 14 25 9 38 -8 39 2 6 50 -28 42 -31 50 -12 43 15 -6 43 31 39 51
-2 7 9 12 28 12 16 0 30 5 30 11 0 5 -5 7 -12 3 -8 -5 -9 -2 -5 10 5 12 2 19
-11 23 -20 5 -26 41 -10 60 7 9 7 17 -2 28 -10 12 -10 15 3 15 8 0 18 6 21 13
3 6 3 2 0 -11 -5 -20 -3 -21 20 -12 14 5 33 7 41 4 11 -5 13 -2 9 10 -3 9 -1
16 5 16 6 0 11 -7 11 -15 0 -11 12 -15 43 -16 23 -1 32 -4 20 -6 -14 -3 -24
-14 -28 -35 -5 -21 -12 -29 -24 -25 -23 6 -41 -15 -25 -30 6 -7 14 -9 17 -6 3
3 71 6 150 8 79 1 149 5 155 9 6 3 12 2 14 -3 1 -5 19 -12 38 -16 47 -8 129
-11 125 -4 -2 3 19 14 46 23 36 13 47 22 40 29 -21 21 -11 36 27 44 20 4 44 6
52 5 10 -1 11 1 3 4 -25 11 -14 42 16 49 21 4 29 11 26 23 -2 10 4 26 12 37
15 20 15 20 10 -1 -2 -12 -1 -28 4 -35 6 -10 9 -10 9 -2 0 7 7 10 15 7 18 -7
20 7 3 24 -14 14 13 27 42 19 11 -3 52 -1 92 4 55 7 74 6 80 -4 5 -8 8 -4 8
12 0 18 3 21 13 12 8 -6 16 -9 19 -6z m-3366 -20 c-6 -25 8 -36 17 -12 2 6 7
9 10 6 10 -8 -11 -71 -34 -104 -12 -16 -18 -21 -15 -11 5 15 4 17 -8 7 -15
-13 -46 -5 -46 13 0 6 -5 3 -11 -6 -15 -26 -32 -22 -23 5 9 30 24 38 54 31 20
-4 23 -3 13 7 -18 18 -16 32 2 25 9 -3 15 0 15 8 0 8 -7 16 -15 20 -8 3 -15
11 -15 17 0 9 3 9 14 0 10 -9 15 -8 20 4 10 26 29 17 22 -10z m-66 -19 c0 -3
-4 -8 -10 -11 -5 -3 -10 -1 -10 4 0 6 5 11 10 11 6 0 10 -2 10 -4z m2370 -6
c0 -5 -7 -10 -15 -10 -8 0 -15 5 -15 10 0 6 7 10 15 10 8 0 15 -4 15 -10z
m1470 0 c0 -5 -4 -10 -10 -10 -5 0 -10 5 -10 10 0 6 5 10 10 10 6 0 10 -4 10
-10z m-151 -21 c-16 -10 -23 -4 -14 10 3 6 11 8 17 5 6 -4 5 -9 -3 -15z
m-3422 5 c-3 -3 -12 -4 -19 -1 -8 3 -5 6 6 6 11 1 17 -2 13 -5z m1363 -14 c0
-5 -5 -10 -11 -10 -5 0 -7 5 -4 10 3 6 8 10 11 10 2 0 4 -4 4 -10z m716 -1 c4
-8 9 -8 17 0 15 15 37 14 37 -3 0 -7 -7 -19 -15 -26 -11 -9 -19 -8 -39 7 -14
10 -26 21 -26 26 0 11 18 8 26 -4z m1444 1 c0 -5 -4 -10 -10 -10 -5 0 -10 5
-10 10 0 6 5 10 10 10 6 0 10 -4 10 -10z m-2652 -12 c9 -9 12 -9 12 1 0 9 4 8
15 -3 19 -18 19 -32 1 -39 -10 -4 -12 0 -9 14 5 17 2 18 -18 11 -13 -5 -32 -7
-42 -4 -14 3 -16 7 -6 18 14 17 31 18 47 2z m-861 -40 c-3 -8 -6 -5 -6 6 -1
11 2 17 5 13 3 -3 4 -12 1 -19z m344 1 c15 -7 35 -7 72 1 43 9 52 8 60 -5 5
-10 16 -14 28 -10 13 4 17 2 14 -7 -3 -7 -21 -18 -41 -24 -32 -10 -36 -10 -43
9 -7 18 -8 18 -14 4 -9 -23 -30 -21 -22 2 5 15 1 18 -20 14 -32 -7 -95 5 -95
17 0 13 36 13 61 -1z m3176 -21 c-3 -8 -6 -5 -6 6 -1 11 2 17 5 13 3 -3 4 -12
1 -19z m93 12 c0 -5 -2 -10 -4 -10 -3 0 -8 5 -11 10 -3 6 -1 10 4 10 6 0 11
-4 11 -10z m-2104 -21 c-32 -9 -42 -6 -32 9 3 5 18 7 33 4 l28 -5 -29 -8z
m2194 1 c0 -5 -4 -10 -10 -10 -5 0 -10 5 -10 10 0 6 5 10 10 10 6 0 10 -4 10
-10z m-160 -25 c0 -8 -4 -15 -10 -15 -5 0 -10 7 -10 15 0 8 5 15 10 15 6 0 10
-7 10 -15z m-3855 -24 c-3 -5 2 -12 10 -14 12 -4 12 -5 -1 -3 -19 1 -32 26
-14 26 6 0 9 -4 5 -9z m300 -11 c18 -8 17 -9 -7 -9 -15 -1 -30 4 -33 9 -7 12
12 12 40 0z m90 1 c3 -5 1 -12 -4 -15 -5 -3 -11 1 -15 9 -6 16 9 21 19 6z
m-35 -11 c0 -5 -4 -10 -10 -10 -5 0 -10 5 -10 10 0 6 5 10 10 10 6 0 10 -4 10
-10z m-330 -97 c0 -49 -9 -80 -24 -86 -8 -3 -13 14 -14 59 -2 58 -1 64 18 64
17 0 20 -6 20 -37z m1630 -23 c-20 -13 -33 -13 -25 0 3 6 14 10 23 10 15 0 15
-2 2 -10z m130 -93 c17 -3 26 -13 32 -32 8 -32 2 -47 -12 -26 -4 8 -15 11 -24
8 -9 -4 -16 -2 -16 4 0 6 -7 9 -15 5 -10 -3 -15 1 -15 13 0 29 12 54 19 42 4
-6 18 -12 31 -14z m-156 -19 c-5 -8 -2 -9 9 -5 9 3 19 2 22 -3 4 -6 1 -10 -6
-10 -7 0 -21 -7 -31 -17 -25 -23 -33 -10 -13 21 17 25 34 38 19 14z m72 3 c-4
-5 0 -11 6 -14 9 -3 5 -12 -12 -26 -14 -13 -24 -33 -25 -49 0 -33 -19 -36 -23
-4 -2 14 5 33 18 47 12 13 19 28 16 33 -3 6 0 13 6 15 19 8 20 8 14 -2z m222
-16 c3 -10 0 -15 -7 -11 -6 4 -11 1 -11 -6 -1 -8 -6 -6 -15 6 -12 16 -12 22
-2 28 17 11 31 4 35 -17z m276 -104 c3 -4 -6 -6 -19 -3 -14 2 -25 6 -25 8 0 8
39 4 44 -5z m-504 -11 c-20 -13 -33 -13 -25 0 3 6 14 10 23 10 15 0 15 -2 2
-10z m-558 -102 c-7 -7 -12 -8 -12 -2 0 14 12 26 19 19 2 -3 -1 -11 -7 -17z
m3043 13 c7 -12 -12 -24 -25 -16 -11 7 -4 25 10 25 5 0 11 -4 15 -9z m-3475
-65 c0 -3 -4 -8 -10 -11 -5 -3 -10 -1 -10 4 0 6 5 11 10 11 6 0 10 -2 10 -4z
m-13 -58 c-3 -8 -6 -5 -6 6 -1 11 2 17 5 13 3 -3 4 -12 1 -19z m1560 -61 c-2
-34 -7 -71 -10 -82 -3 -11 -6 -26 -6 -32 -1 -7 -8 -13 -16 -13 -8 0 -15 -4
-15 -10 0 -5 4 -10 8 -10 5 0 9 -13 10 -30 0 -16 -4 -30 -9 -30 -6 0 -8 -4 -5
-9 13 -20 -12 -51 -57 -74 -26 -13 -47 -23 -47 -21 0 2 9 19 20 39 11 19 17
35 13 35 -3 0 2 9 12 20 23 26 4 56 -25 40 -27 -14 -30 -13 -30 15 0 14 -4 25
-9 25 -17 0 -20 -43 -5 -72 19 -37 2 -36 -29 2 -28 33 -40 39 -31 15 4 -8 2
-15 -4 -15 -5 0 -12 7 -16 15 -5 13 -9 13 -26 3 -24 -15 -25 -26 -5 -64 13
-26 13 -29 -1 -32 -9 -2 -20 1 -24 7 -9 16 -34 5 -45 -22 -10 -22 -46 -26 -54
-6 -1 6 -9 2 -17 -8 -13 -17 -13 -17 -14 0 0 15 -17 22 -43 18 -4 -1 -13 12
-18 29 -6 16 -15 27 -20 24 -5 -3 -9 -1 -9 4 0 5 -6 9 -14 9 -15 0 -11 -21 7
-45 5 -7 7 -16 3 -19 -4 -4 -10 -3 -14 3 -28 41 -42 57 -47 52 -10 -9 14 -86
28 -91 6 -2 8 -8 4 -13 -5 -5 -17 2 -27 16 -14 19 -18 38 -15 85 2 39 0 53 -5
40 -7 -17 -9 -16 -9 10 -1 17 -5 37 -11 45 -7 11 -11 9 -19 -13 -15 -38 -14
-53 5 -71 11 -11 14 -25 9 -46 -4 -19 -3 -30 4 -30 6 0 11 -7 11 -15 0 -13 -4
-14 -21 -5 -29 16 -34 6 -9 -18 l21 -19 -23 -7 c-15 -3 -27 0 -34 9 -6 8 -16
15 -21 15 -13 0 -33 144 -33 233 0 38 4 67 10 67 6 0 10 8 9 18 0 10 -3 12 -6
5 -2 -7 -9 -13 -14 -13 -4 0 -6 6 -3 14 3 8 1 17 -5 21 -16 9 -14 45 3 51 22
8 96 -35 89 -52 -4 -12 0 -14 21 -8 20 5 26 2 26 -10 0 -8 11 -18 25 -22 13
-3 29 -12 35 -19 5 -7 21 -10 35 -7 18 3 27 -1 32 -14 10 -27 45 -61 49 -49
12 30 23 38 36 28 16 -13 53 -1 66 23 8 14 13 16 24 6 11 -9 18 -7 30 6 8 9
25 25 37 35 21 17 21 17 15 -10 l-6 -28 21 25 c11 14 21 31 21 38 0 6 8 13 18
14 38 3 48 5 64 12 9 4 21 5 26 2 6 -3 12 1 16 9 3 8 12 15 20 15 9 0 12 7 9
21 -5 19 -4 20 16 9 21 -10 22 -17 18 -73z m602 40 c14 -28 21 -63 21 -100 0
-30 4 -68 10 -82 7 -19 6 -33 -4 -52 l-13 -26 -8 44 c-4 24 -9 76 -11 114 -5
85 -13 111 -24 75 -6 -20 -8 -15 -9 23 -1 26 3 47 8 47 5 0 19 -19 30 -43z
m1301 -6 c0 -11 8 -21 18 -24 15 -3 15 -5 -3 -12 -11 -5 -24 -13 -28 -19 -6
-7 -7 -4 -3 7 3 10 0 17 -7 18 -9 0 -9 2 1 6 6 2 12 11 12 18 0 7 -6 16 -12
18 -8 3 -6 6 5 6 10 1 17 -6 17 -18z m-1343 -73 c-3 -8 -6 -5 -6 6 -1 11 2 17
5 13 3 -3 4 -12 1 -19z m138 -270 c9 -40 19 -82 22 -93 4 -13 2 -17 -5 -10 -9
9 -52 153 -52 176 0 5 4 8 9 5 5 -3 16 -38 26 -78z m289 -14 c22 -21 20 -24
-14 -24 -23 0 -30 4 -30 20 0 24 22 26 44 4z m-2644 -30 c0 -8 -4 -12 -10 -9
-5 3 -10 13 -10 21 0 8 5 12 10 9 6 -3 10 -13 10 -21z m2634 -23 c3 -4 -2 -15
-12 -24 -16 -14 -18 -14 -29 9 -10 22 -9 24 12 24 13 0 26 -4 29 -9z m36 -3
c0 -7 -5 -20 -10 -28 -8 -12 -10 -9 -10 13 0 15 5 27 10 27 6 0 10 -6 10 -12z
m-2645 -18 c3 -5 -1 -10 -9 -10 -9 0 -16 5 -16 10 0 6 4 10 9 10 6 0 13 -4 16
-10z m3065 -21 c0 -6 -4 -7 -10 -4 -5 3 -10 11 -10 16 0 6 5 7 10 4 6 -3 10
-11 10 -16z m-625 -20 c-8 -12 -35 -12 -35 0 0 11 22 20 33 14 4 -2 5 -9 2
-14z m170 -35 c19 -15 19 -15 -9 -12 -16 2 -31 9 -34 16 -5 17 19 15 43 -4z
m25 -31 c0 -5 -4 -14 -9 -22 -8 -12 -12 -12 -25 2 -22 22 -20 27 9 27 14 0 25
-3 25 -7z m-1267 -63 c-11 -41 45 -63 68 -28 4 6 9 6 13 -1 4 -6 2 -11 -4 -11
-6 0 -8 -4 -5 -10 3 -5 20 -10 37 -10 30 0 88 -28 88 -42 0 -4 -3 -8 -7 -8 -5
0 -8 -50 -9 -111 -1 -79 -5 -113 -14 -119 -8 -5 -10 -17 -6 -36 7 -25 6 -26
-10 -13 -13 11 -18 11 -21 2 -3 -7 -14 -13 -26 -13 -12 0 -28 -4 -36 -9 -10
-7 0 -11 35 -16 27 -4 54 -8 59 -10 6 -2 -109 -3 -255 -3 -249 0 -319 4 -187
10 31 2 58 7 60 12 1 6 -23 9 -55 7 -56 -2 -98 10 -98 29 0 6 14 10 31 10 17
0 28 4 24 10 -3 6 -21 10 -38 10 -55 0 -57 6 -51 115 8 160 10 168 28 179 12
8 19 7 26 -4 9 -13 11 -13 20 0 5 8 10 20 10 27 0 6 5 15 11 19 8 4 9 -1 4
-17 -8 -24 -7 -24 20 3 21 22 30 25 39 15 14 -14 27 -67 16 -67 -4 0 -12 -12
-18 -26 -7 -14 -8 -23 -2 -19 5 3 10 -2 11 -12 0 -15 2 -14 11 5 16 33 24 27
24 -20 0 -26 8 -55 19 -72 11 -17 18 -38 17 -48 -2 -10 2 -18 7 -18 6 0 11 5
11 10 0 6 7 10 16 10 11 0 15 6 11 20 -3 11 -1 20 4 20 4 0 5 8 2 17 -5 12 -2
15 10 10 14 -5 17 0 17 32 0 45 8 71 21 71 5 0 9 -11 9 -24 0 -14 4 -27 8 -30
5 -3 8 11 7 30 0 19 5 39 11 45 7 5 15 26 19 47 4 20 9 40 11 44 9 14 12 8 7
-12z m1517 -280 c0 -5 -5 -10 -11 -10 -5 0 -7 5 -4 10 3 6 8 10 11 10 2 0 4
-4 4 -10z m-3 -67 c-3 -10 -5 -4 -5 12 0 17 2 24 5 18 2 -7 2 -21 0 -30z m300
31 c-3 -3 -12 -4 -19 -1 -8 3 -5 6 6 6 11 1 17 -2 13 -5z m-720 -46 c-3 -8 -6
-5 -6 6 -1 11 2 17 5 13 3 -3 4 -12 1 -19z m-801 -35 c-10 -10 -19 5 -10 18 6
11 8 11 12 0 2 -7 1 -15 -2 -18z m834 -123 c13 -74 28 -150 36 -167 23 -59 -1
-43 -36 23 -22 41 -31 67 -25 72 12 8 12 69 0 157 -14 110 3 52 25 -85z m863
103 c-7 -2 -21 -2 -30 0 -10 3 -4 5 12 5 17 0 24 -2 18 -5z m67 -13 c0 -5 -2
-10 -4 -10 -3 0 -8 5 -11 10 -3 6 -1 10 4 10 6 0 11 -4 11 -10z m-1770 -120
c0 -33 -4 -60 -8 -60 -4 0 -7 26 -6 58 3 67 3 62 9 62 3 0 5 -27 5 -60z m-344
22 c19 -15 21 -25 17 -84 -6 -76 -11 -80 -97 -72 -79 8 -96 13 -96 29 0 8 -6
15 -14 15 -22 0 -29 69 -9 89 16 15 15 16 -13 20 l-29 4 25 7 c14 5 63 8 110
9 67 0 90 -3 106 -17z m94 -12 c0 -5 -12 -10 -27 -9 l-28 1 25 8 c14 4 26 8
28 9 1 1 2 -3 2 -9z m2080 0 c0 -5 -4 -10 -10 -10 -5 0 -10 5 -10 10 0 6 5 10
10 10 6 0 10 -4 10 -10z m-2012 -7 c-15 -4 -18 -16 -18 -65 0 -77 -7 -72 -14
10 l-5 62 27 -1 c17 -1 20 -3 10 -6z m-117 -55 c-4 -35 -6 -38 -9 -15 -3 26 3
57 10 57 2 0 1 -19 -1 -42z m2179 32 c0 -5 -4 -10 -10 -10 -5 0 -10 5 -10 10
0 6 5 10 10 10 6 0 10 -4 10 -10z m-1890 -92 c0 -5 -4 -8 -10 -8 -5 0 -10 10
-10 23 0 18 2 19 10 7 5 -8 10 -18 10 -22z m-293 -10 c-3 -8 -6 -5 -6 6 -1 11
2 17 5 13 3 -3 4 -12 1 -19z m103 -98 c-8 -5 -15 -17 -15 -27 0 -17 -16 -18
-207 -21 -115 -1 -208 1 -208 5 0 5 -3 18 -6 31 l-6 22 228 0 c147 0 224 -4
214 -10z m-1279 -42 c1 -13 2 -31 3 -40 1 -9 9 -26 19 -38 9 -11 17 -27 17
-36 0 -14 -2 -14 -15 0 -8 8 -15 17 -15 21 0 3 -11 18 -25 33 -25 27 -35 70
-13 56 8 -5 9 -2 5 9 -4 11 -1 17 8 17 8 0 16 -10 16 -22z m23 7 c-4 -8 -8
-15 -10 -15 -2 0 -4 7 -4 15 0 8 4 15 10 15 5 0 7 -7 4 -15z m3366 -6 c0 -5
-7 -9 -15 -9 -15 0 -20 12 -9 23 8 8 24 -1 24 -14z m-3290 1 c0 -5 -4 -10 -10
-10 -5 0 -10 5 -10 10 0 6 5 10 10 10 6 0 10 -4 10 -10z m2184 -8 c2 -4 -14
-28 -36 -52 -40 -45 -40 -45 -19 -8 12 20 21 40 20 45 -3 17 1 23 15 23 8 0
17 -4 20 -8z m-2204 -30 c0 -15 -2 -15 -10 -2 -13 20 -13 33 0 25 6 -3 10 -14
10 -23z m30 -72 c0 -5 -4 -10 -10 -10 -5 0 -10 5 -10 10 0 6 5 10 10 10 6 0
10 -4 10 -10z m2110 -15 c0 -8 -4 -15 -10 -15 -5 0 -7 7 -4 15 4 8 8 15 10 15
2 0 4 -7 4 -15z m-73 -17 c-3 -8 -6 -5 -6 6 -1 11 2 17 5 13 3 -3 4 -12 1 -19z
m-734 -70 c-3 -16 -10 -28 -15 -28 -6 0 -7 7 -4 16 3 9 6 25 6 37 0 13 4 17 9
12 5 -6 7 -22 4 -37z m-3 -78 c0 -20 -5 -30 -15 -30 -18 0 -19 14 -5 41 15 27
20 24 20 -11z m-10 -70 c0 -11 -4 -20 -10 -20 -5 0 -10 9 -10 20 0 11 5 20 10
20 6 0 10 -9 10 -20z m-16 -117 c-3 -49 -10 -92 -15 -97 -10 -11 -5 156 5 173
15 23 17 8 10 -76z"/>
<path d="M1855 3814 c-34 -37 -48 -80 -35 -105 6 -10 10 -28 10 -41 0 -33 28
-71 47 -63 9 3 21 1 28 -5 11 -9 12 -7 8 9 -4 16 1 23 22 31 15 6 29 19 32 30
4 13 14 20 30 20 13 0 21 4 18 10 -3 6 3 10 14 10 12 0 21 7 21 15 0 8 6 15
13 15 6 0 -3 10 -22 22 -19 12 -29 24 -23 26 20 6 13 22 -15 34 -16 6 -31 11
-35 10 -5 -1 -8 2 -8 7 0 6 -17 9 -38 8 -29 -1 -45 -9 -67 -33z"/>
<path d="M1988 3343 c-10 -2 -18 -11 -18 -19 0 -13 2 -13 16 0 8 9 20 14 25
11 5 -4 9 -1 9 4 0 11 -3 12 -32 4z"/>
<path d="M2030 3310 c19 -4 27 -8 18 -9 -10 0 -18 -6 -18 -12 0 -7 7 -8 18 -4
9 4 27 10 40 12 47 11 30 23 -30 22 -54 -1 -58 -3 -28 -9z"/>
<path d="M2205 3310 c-3 -5 -2 -10 4 -10 5 0 13 5 16 10 3 6 2 10 -4 10 -5 0
-13 -4 -16 -10z"/>
<path d="M1950 3275 c-11 -13 -8 -15 14 -15 16 0 26 5 26 15 0 8 -6 15 -14 15
-7 0 -19 -7 -26 -15z"/>
<path d="M2214 3276 c-10 -8 -16 -17 -13 -20 3 -3 14 3 24 14 21 23 17 26 -11
6z"/>
<path d="M2026 3104 c-5 -14 -4 -15 9 -4 17 14 19 20 6 20 -5 0 -12 -7 -15
-16z"/>
<path d="M1950 3080 c-8 -5 -11 -12 -7 -16 4 -4 13 -2 19 4 15 15 7 24 -12 12z"/>
<path d="M1980 3054 c-20 -20 -22 -24 -7 -24 9 0 17 5 17 11 0 5 5 7 10 4 6
-3 10 3 10 14 0 25 1 26 -30 -5z"/>
<path d="M1380 3031 c0 -5 -8 -11 -17 -13 -41 -9 31 -30 106 -31 92 -2 109 14
29 28 -31 6 -60 13 -64 18 -11 10 -54 9 -54 -2z"/>
<path d="M1755 3000 c-3 -6 1 -7 9 -4 18 7 21 14 7 14 -6 0 -13 -4 -16 -10z"/>
<path d="M1677 2983 c6 -16 8 -16 23 1 9 12 8 15 -8 13 -12 0 -18 -6 -15 -14z"/>
<path d="M1719 2973 c-13 -16 -12 -17 4 -4 9 7 17 15 17 17 0 8 -8 3 -21 -13z"/>
<path d="M1486 2835 c-9 -26 -7 -32 5 -12 6 10 9 21 6 23 -2 3 -7 -2 -11 -11z"/>
<path d="M3740 3500 c0 -5 5 -10 11 -10 5 0 7 5 4 10 -3 6 -8 10 -11 10 -2 0
-4 -4 -4 -10z"/>
<path d="M4125 3460 c-17 -7 -16 -9 10 -9 23 -1 26 -4 15 -11 -8 -5 -11 -12
-7 -16 12 -12 28 11 21 29 -7 19 -10 19 -39 7z"/>
<path d="M2916 3255 c-17 -13 -18 -15 -3 -15 9 0 16 -6 15 -12 -2 -7 5 -12 15
-12 28 3 19 -14 -11 -21 -16 -3 -29 -12 -29 -19 0 -8 6 -12 13 -9 6 2 15 -1
20 -8 4 -7 2 -15 -4 -17 -7 -2 -12 -9 -12 -15 0 -6 -10 -21 -22 -34 l-21 -23
31 0 c17 0 33 4 37 10 3 5 13 6 23 3 9 -3 4 6 -13 20 -23 21 -26 27 -12 27 10
0 17 8 17 20 0 11 5 20 10 20 6 0 10 -7 10 -15 0 -14 4 -14 37 0 21 9 47 24
58 34 23 21 45 17 45 -7 1 -10 9 -3 23 19 12 20 28 34 35 32 6 -3 12 -1 12 4
0 4 -16 13 -35 19 -19 6 -35 7 -35 3 0 -12 -67 -11 -75 1 -10 15 -107 11 -129
-5z"/>
<path d="M586 3477 c3 -10 9 -15 12 -12 3 3 0 11 -7 18 -10 9 -11 8 -5 -6z"/>
<path d="M2086 2641 c-4 -6 -3 -18 2 -27 8 -15 10 -14 16 2 8 20 -8 42 -18 25z"/>
<path d="M2070 2559 c0 -5 5 -7 10 -4 6 3 10 8 10 11 0 2 -4 4 -10 4 -5 0 -10
-5 -10 -11z"/>
<path d="M2056 2495 c4 -8 8 -15 10 -15 2 0 4 7 4 15 0 8 -4 15 -10 15 -5 0
-7 -7 -4 -15z"/>
<path d="M2240 1934 c0 -8 5 -12 10 -9 6 3 10 10 10 16 0 5 -4 9 -10 9 -5 0
-10 -7 -10 -16z"/>
<path d="M2350 1786 c0 -14 -6 -16 -33 -11 -24 5 -37 2 -46 -9 -11 -13 1 -15
103 -18 71 -2 115 1 113 7 -2 5 -28 11 -58 12 -36 3 -58 9 -66 20 -12 16 -13
16 -13 -1z"/>
<path d="M2180 1771 c0 -10 30 -24 37 -17 3 2 -5 9 -16 16 -12 6 -21 7 -21 1z"/>
<path d="M2532 1758 c2 -18 10 -23 33 -25 17 -1 23 1 14 3 -10 3 -19 14 -22
25 -7 27 -29 24 -25 -3z"/>
<path d="M2297 1722 c-18 -19 -17 -20 50 -26 71 -7 160 -3 170 8 4 3 -36 6
-87 6 -73 0 -95 3 -104 16 -10 14 -14 13 -29 -4z"/>
<path d="M2407 1470 c-3 -11 -1 -20 4 -20 5 0 9 9 9 20 0 11 -2 20 -4 20 -2 0
-6 -9 -9 -20z"/>
<path d="M880 4410 c0 -5 5 -10 11 -10 5 0 7 5 4 10 -3 6 -8 10 -11 10 -2 0
-4 -4 -4 -10z"/>
</g>
</svg>
