<?xml version="1.0" standalone="no"?>
<!DOCTYPE svg PUBLIC "-//W3C//DTD SVG 20010904//EN"
 "http://www.w3.org/TR/2001/REC-SVG-20010904/DTD/svg10.dtd">
<svg version="1.0" xmlns="http://www.w3.org/2000/svg"
 width="400.000000pt" height="400.000000pt" viewBox="0 0 400.000000 400.000000"
 preserveAspectRatio="xMidYMid meet">
<metadata>
Created by potrace 1.11, written by Peter Selinger 2001-2013
</metadata>
<g transform="translate(0.000000,400.000000) scale(0.100000,-0.100000)"
fill="#000000" stroke="none">
<path d="M1885 3570 c-33 -11 -75 -20 -92 -20 -18 0 -33 -4 -33 -10 0 -5 -7
-10 -15 -10 -8 0 -15 -4 -15 -8 0 -5 -28 -23 -62 -41 -35 -18 -72 -43 -83 -55
-11 -13 -28 -26 -37 -29 -26 -9 -99 -125 -114 -181 -15 -56 -20 -68 -53 -137
-13 -26 -21 -57 -18 -70 4 -23 4 -23 6 2 0 15 8 32 16 39 19 16 19 13 -1 -41
-18 -51 -12 -150 13 -199 18 -37 23 -38 17 -4 -3 17 -1 23 7 19 6 -4 9 -20 7
-34 -5 -33 15 -54 57 -61 23 -4 29 -10 28 -25 -3 -21 12 -53 21 -45 2 3 6 24
9 48 2 24 10 49 18 58 14 13 18 10 40 -23 32 -49 61 -63 137 -63 67 0 152 30
152 53 0 6 10 28 21 47 l21 34 19 -23 c13 -16 19 -39 19 -72 0 -26 5 -51 11
-54 6 -4 7 -14 4 -24 -13 -30 -32 -130 -24 -125 4 2 10 0 14 -6 3 -5 1 -10 -4
-10 -6 0 -11 -5 -11 -11 0 -8 4 -8 14 0 16 14 46 4 46 -14 0 -8 -9 -17 -20
-20 -27 -9 -25 -25 3 -25 17 0 19 -2 7 -10 -9 -6 -18 -6 -24 0 -13 13 -39 13
-31 0 3 -5 1 -10 -4 -10 -6 0 -11 5 -11 10 0 6 -5 10 -11 10 -5 0 -7 -5 -3
-11 4 -7 0 -9 -14 -5 -26 8 -92 -3 -92 -15 0 -5 42 -9 94 -9 100 0 112 -5 102
-45 -4 -16 -16 -26 -38 -31 l-33 -7 30 -9 c69 -21 105 -44 114 -71 6 -15 6
-25 2 -22 -5 3 -11 -2 -15 -10 -3 -8 -18 -21 -33 -28 -15 -6 -38 -22 -50 -33
l-23 -22 25 -16 c21 -14 25 -23 21 -54 -2 -24 2 -46 13 -62 18 -27 20 -38 8
-57 -4 -6 -3 -14 3 -18 6 -4 8 -11 5 -16 -4 -5 -1 -9 6 -9 7 0 9 -10 7 -25 -4
-21 -3 -23 14 -14 28 15 38 2 38 -52 l0 -51 38 3 c20 1 46 -2 57 -5 54 -20 66
-27 63 -39 -2 -6 -39 -33 -82 -59 -106 -64 -197 -85 -303 -69 -155 23 -226 81
-182 148 25 37 24 98 -2 178 l-21 65 21 60 c37 106 26 113 -38 27 -110 -148
-188 -197 -538 -337 l-181 -72 -37 -107 c-38 -110 -48 -147 -110 -416 -20 -88
-57 -236 -82 -330 -63 -241 -62 -232 -90 -655 -2 -41 0 -87 6 -103 l11 -27
1330 0 1331 0 35 77 c65 142 66 215 8 355 -13 32 -24 76 -24 99 0 173 -152
857 -245 1106 -34 89 -43 95 -250 168 -82 29 -177 66 -210 83 -33 16 -93 42
-133 58 -62 23 -83 38 -128 88 -31 35 -56 74 -60 92 -3 18 -4 82 -2 143 2 84
0 110 -9 107 -7 -3 -15 4 -18 15 -4 11 -11 16 -18 12 -8 -4 -7 -1 1 9 9 11 10
18 2 23 -5 3 -10 2 -10 -3 0 -10 -36 -9 -46 1 -4 3 -4 14 0 23 5 13 9 14 21 4
9 -7 19 -10 22 -6 4 4 1 11 -6 15 -10 6 -10 10 -1 16 6 4 9 13 6 21 -4 12 -2
12 14 4 11 -6 20 -16 20 -23 0 -7 4 -6 10 3 14 22 12 33 -5 27 -8 -4 -17 -1
-21 5 -4 7 -3 8 4 4 7 -4 12 -1 12 9 0 13 -4 14 -20 5 -16 -8 -18 -8 -14 4 4
11 0 13 -15 9 -13 -3 -21 -1 -21 6 0 7 -5 9 -10 6 -14 -9 -52 4 -45 16 4 5 1
9 -4 9 -6 0 -11 9 -11 20 0 30 47 55 102 54 43 0 49 2 55 24 4 16 11 22 23 19
13 -3 16 0 12 16 -3 14 -1 18 6 13 7 -4 12 -16 12 -26 0 -10 5 -22 10 -25 6
-4 7 -12 3 -20 -14 -24 -3 -145 12 -145 20 0 48 32 80 93 22 40 30 68 33 129
3 43 8 75 13 72 5 -2 12 8 16 23 9 32 10 248 1 279 -3 11 -14 52 -23 90 -14
54 -27 80 -61 119 -72 82 -108 115 -126 115 -9 0 -24 8 -34 17 -9 10 -27 16
-38 15 -12 -2 -26 6 -34 18 -7 11 -8 20 -3 20 6 0 14 -7 19 -17 6 -10 16 -14
27 -10 10 4 29 -2 48 -15 24 -17 28 -18 18 -4 -31 37 -145 78 -341 121 -8 2
-42 -5 -75 -15z m469 -179 c3 -4 -4 -7 -14 -7 -11 0 -22 6 -24 12 -5 12 31 8
38 -5z m-784 -5 c0 -2 -7 -7 -16 -10 -8 -3 -12 -2 -9 4 6 10 25 14 25 6z m-85
-145 c-3 -6 -11 -11 -17 -11 -6 0 -6 6 2 15 14 17 26 13 15 -4z m368 -16 c12
-8 29 -15 39 -15 10 0 18 -5 18 -12 0 -8 6 -6 16 4 15 15 20 15 58 -5 22 -11
48 -28 57 -36 17 -18 14 -45 -3 -35 -7 4 -8 2 -4 -5 6 -9 11 -9 22 0 11 9 14
8 14 -5 0 -24 2 -30 17 -44 19 -20 16 -42 -6 -42 -36 0 -88 -39 -95 -70 -3
-17 -9 -30 -13 -29 -24 4 -33 -4 -33 -30 0 -38 -18 -43 -82 -24 -29 8 -75 15
-103 14 -76 -2 -205 -32 -205 -47 0 -8 7 -11 18 -8 15 5 15 4 -2 -10 -10 -8
-16 -18 -13 -23 3 -5 -6 -13 -19 -20 -22 -10 -24 -9 -24 17 0 15 7 33 15 40 8
7 15 21 15 31 0 11 3 19 8 19 8 0 26 37 43 90 6 19 15 44 19 55 5 11 20 45 34
75 33 76 102 145 132 133 12 -4 15 -3 10 5 -9 15 35 -1 67 -23z m-121 -371
c-13 -9 -31 -17 -40 -18 -10 -2 -18 -14 -20 -30 -2 -14 0 -25 5 -24 15 4 73
-13 73 -22 0 -15 65 -18 82 -3 22 20 31 59 18 83 -8 16 -8 20 4 20 25 0 38
-35 25 -67 -7 -15 -13 -36 -14 -46 -1 -10 -6 -22 -12 -28 -25 -25 -149 -37
-197 -19 -31 11 -45 37 -51 94 -6 60 11 72 105 75 43 1 44 1 22 -15z m2 -49
c3 -9 0 -15 -9 -15 -16 0 -27 14 -18 24 10 10 21 7 27 -9z m306 -205 c0 -5 -2
-10 -4 -10 -3 0 -8 5 -11 10 -3 6 -1 10 4 10 6 0 11 -4 11 -10z m183 -207 c-6
-15 -19 -17 -27 -4 -7 11 0 18 18 18 8 0 12 -6 9 -14z m57 -87 c0 -2 -8 -10
-17 -17 -16 -13 -17 -12 -4 4 13 16 21 21 21 13z m-100 -921 c0 -19 -19 -39
-52 -56 -21 -11 -71 -42 -111 -69 -39 -28 -82 -50 -94 -50 -35 0 -28 -14 19
-36 l42 -21 44 34 c41 31 50 34 105 31 53 -3 60 -6 63 -25 3 -16 -4 -24 -28
-32 -17 -6 -41 -11 -52 -11 -12 0 -32 -7 -44 -16 -12 -8 -22 -12 -22 -9 0 3
-5 3 -11 0 -7 -5 -4 -14 7 -26 17 -19 18 -19 50 12 28 27 37 31 67 25 19 -4
38 -13 41 -21 3 -10 0 -12 -12 -8 -15 6 -15 4 -4 -9 11 -14 8 -21 -18 -48 -23
-24 -28 -35 -19 -40 7 -5 21 -3 31 3 15 10 21 9 28 -3 5 -8 5 -19 0 -25 -5 -6
12 -33 46 -70 74 -82 106 -138 102 -178 -2 -27 -10 -36 -48 -54 -56 -29 -85
-31 -71 -4 6 10 7 21 4 25 -3 3 -1 6 6 6 7 0 9 5 6 10 -3 6 0 10 8 10 10 0 19
18 27 50 11 46 10 52 -12 87 -22 36 -23 37 -26 14 -2 -13 5 -36 17 -51 11 -15
17 -30 14 -34 -9 -9 -43 -7 -41 2 0 4 -2 14 -5 22 -3 8 -11 34 -17 58 -13 51
-30 60 -64 35 -29 -22 -39 -50 -20 -57 20 -8 17 -36 -3 -36 -15 0 -16 2 -3 10
9 6 10 10 3 10 -6 0 -18 -7 -26 -15 -8 -8 -17 -12 -20 -9 -3 3 -8 -7 -11 -23
-4 -15 -20 -43 -36 -62 -17 -18 -30 -35 -30 -37 0 -1 14 -13 31 -25 26 -18 33
-19 40 -8 7 11 9 11 9 -3 0 -20 50 -57 68 -51 15 6 16 30 0 35 -8 3 -6 6 4 10
13 5 15 0 14 -22 -1 -16 -5 -32 -9 -36 -10 -11 65 -44 89 -40 31 6 45 -15 38
-53 -6 -27 -3 -33 15 -38 11 -3 21 -9 21 -14 0 -12 -13 -11 -26 0 -13 13 -132
58 -174 66 -42 9 -96 35 -167 83 -44 29 -59 34 -92 29 -40 -5 -81 12 -81 35 0
5 -20 32 -45 60 -29 33 -46 62 -50 86 -3 20 -15 55 -25 77 -26 52 -25 55 10
55 l29 0 -18 33 c-29 50 -34 84 -15 95 13 7 14 13 4 31 -21 40 23 66 69 42 9
-5 23 -6 30 -2 10 7 10 14 -4 35 -27 40 -13 60 38 53 41 -5 43 -4 81 44 58 75
220 152 269 127 9 -5 17 -10 17 -13z m-46 -736 c-3 -5 -10 -7 -15 -3 -5 3 -7
10 -3 15 3 5 10 7 15 3 5 -3 7 -10 3 -15z m77 -46 c-12 -8 -25 -13 -28 -10 -9
10 5 23 28 24 l22 2 -22 -16z"/>
<path d="M1710 2972 c-46 -3 -127 -51 -101 -60 7 -2 21 4 31 13 16 15 32 17
87 12 38 -3 77 -8 88 -11 11 -4 27 -2 35 4 13 8 13 11 -2 26 -17 17 -57 22
-138 16z"/>
<path d="M1840 1111 c0 -5 -8 -11 -17 -13 -14 -3 -12 -7 12 -20 25 -13 32 -13
42 -3 10 10 10 15 0 23 -24 18 -37 23 -37 13z"/>
<path d="M2121 1071 c-15 -13 -17 -21 -9 -29 7 -7 15 -12 19 -12 10 0 39 29
39 40 0 17 -29 18 -49 1z"/>
<path d="M1896 1054 c-3 -9 -6 -17 -6 -19 0 -3 25 -23 55 -46 44 -33 58 -39
68 -30 9 10 2 21 -33 52 -63 55 -77 62 -84 43z"/>
<path d="M1740 1017 c0 -2 15 -16 33 -33 l32 -29 -29 33 c-28 30 -36 37 -36
29z"/>
<path d="M1815 940 c3 -5 27 -24 53 -41 l47 -30 -45 40 c-42 38 -69 53 -55 31z"/>
<path d="M2035 611 c-6 -11 33 -36 42 -27 3 3 12 -2 19 -12 9 -12 13 -13 14
-4 0 16 -39 51 -57 52 -6 0 -14 -4 -18 -9z"/>
<path d="M1665 3510 c-3 -6 1 -7 9 -4 18 7 21 14 7 14 -6 0 -13 -4 -16 -10z"/>
<path d="M1470 2680 c0 -27 24 -90 34 -90 2 0 0 19 -6 42 -5 24 -7 51 -5 60 3
11 0 18 -9 18 -9 0 -14 -11 -14 -30z"/>
<path d="M1544 2596 c-4 -11 0 -24 10 -34 16 -16 17 -15 10 13 -9 38 -12 42
-20 21z"/>
<path d="M1885 2570 c-3 -5 1 -10 9 -10 8 0 18 5 21 10 3 6 -1 10 -9 10 -8 0
-18 -4 -21 -10z"/>
<path d="M1800 2545 c0 -8 2 -15 4 -15 2 0 6 7 10 15 3 8 1 15 -4 15 -6 0 -10
-7 -10 -15z"/>
<path d="M2319 2518 c0 -1 -2 -12 -4 -23 -4 -19 -3 -19 10 -2 8 11 15 14 18 7
3 -6 5 -6 3 2 -2 10 -25 25 -27 16z"/>
<path d="M2056 2193 c-6 -14 -5 -15 5 -6 7 7 10 15 7 18 -3 3 -9 -2 -12 -12z"/>
<path d="M2010 1870 c0 -5 5 -10 10 -10 6 0 10 5 10 10 0 6 -4 10 -10 10 -5 0
-10 -4 -10 -10z"/>
</g>
</svg>
